:FULLY-SPECIFIED
:FORCE-ALL-JOINTS-BE-3DOF
:DEGREES
1631
root -15.0624 14.5835 19.3114 701.597 -70.5776 378.415
lfemur 13.1233 -11.2634 -13.0006
ltibia 26.6259 0 0
lfoot -20.9755 28.7279 0
ltoes -44.4517 0 0
rfemur -52.2952 -15.0606 7.35987
rtibia 66.0878 0 0
rfoot -10.2293 10.5648 0
rtoes 4.48942 0 0
lowerback 13.2214 4.16957 -8.2501
upperback -0.506635 4.15659 -0.619623
thorax -8.54031 2.33749 3.11464
lowerneck 0.838476 -12.6632 -12.6095
upperneck 4.26456 -17.3869 9.70386
head 3.05725 -8.70381 4.17861
lclavicle 1.20999e-13 9.60005e-15 0
lhumerus -73.0975 -15.9068 104.096
lradius 104.673 0 0
lwrist 54.8771 0 0
lhand -11.9124 49.6737 0
lfingers 7.12502 0 0
lthumb 14.1271 79.011 0
rclavicle 1.20999e-13 9.60005e-15 0
rhumerus 47.4569 -4.38997 -56.4224
rradius 17.3209 0 0
rwrist 25.6875 0 0
rhand -18.5178 -34.6145 0
rfingers 7.12502 0 0
rthumb 7.77283 -64.4861 0
1632
root -15.0618 14.5842 19.3244 701.557 -70.6759 378.589
lfemur 13.0295 -11.2418 -12.9866
ltibia 26.6238 0 0
lfoot -20.9067 28.71 0
ltoes -44.4757 0 0
rfemur -52.4264 -15.0432 7.42526
rtibia 66.2039 0 0
rfoot -10.3322 10.5144 0
rtoes 4.45148 0 0
lowerback 13.1908 4.15939 -8.18757
upperback -0.519463 4.15951 -0.593692
thorax -8.53459 2.33764 3.10847
lowerneck 0.882881 -12.669 -12.5989
upperneck 4.18335 -17.3945 9.72211
head 3.03198 -8.71015 4.18683
lclavicle 1.23069e-13 9.08949e-15 0
lhumerus -72.817 -16.1371 104.073
lradius 104.507 0 0
lwrist 54.7374 0 0
lhand -12.4251 49.4853 0
lfingers 7.12502 0 0
lthumb 13.6364 78.8942 0
rclavicle 1.23069e-13 9.08949e-15 0
rhumerus 47.2482 -4.18475 -56.291
rradius 17.7589 0 0
rwrist 25.002 0 0
rhand -18.4605 -34.6072 0
rfingers 7.12502 0 0
rthumb 7.8276 -64.4691 0
1633
root -15.0601 14.5842 19.3378 701.575 -70.7723 378.694
lfemur 12.914 -11.2424 -12.9717
ltibia 26.6774 0 0
lfoot -20.8442 28.6974 0
ltoes -44.5 0 0
rfemur -52.5472 -15.0094 7.47926
rtibia 66.2837 0 0
rfoot -10.4078 10.4692 0
rtoes 4.39736 0 0
lowerback 13.1639 4.14976 -8.12571
upperback -0.52991 4.16262 -0.568083
thorax -8.52847 2.33778 3.10206
lowerneck 0.932087 -12.6819 -12.5918
upperneck 4.0976 -17.412 9.75165
head 3.00664 -8.72158 4.19862
lclavicle 1.24806e-13 8.58911e-15 0
lhumerus -72.5596 -16.3709 104.053
lradius 104.367 0 0
lwrist 54.6181 0 0
lhand -12.8818 49.3068 0
lfingers 7.12502 0 0
lthumb 13.1995 78.7805 0
rclavicle 1.24806e-13 8.58911e-15 0
rhumerus 47.0706 -3.99375 -56.1396
rradius 18.1775 0 0
rwrist 24.3207 0 0
rhand -18.3913 -34.6142 0
rfingers 7.12502 0 0
rthumb 7.89386 -64.4662 0
1634
root -15.0573 14.5835 19.3516 701.657 -70.8666 378.724
lfemur 12.7764 -11.2667 -12.9557
ltibia 26.7893 0 0
lfoot -20.7884 28.6907 0
ltoes -44.5244 0 0
rfemur -52.657 -14.9581 7.52106
rtibia 66.3246 0 0
rfoot -10.4546 10.4299 0
rtoes 4.32639 0 0
lowerback 13.1408 4.1408 -8.06466
upperback -0.53783 4.16604 -0.542894
thorax -8.52191 2.33795 3.09535
lowerneck 0.986383 -12.7023 -12.5883
upperneck 4.00719 -17.4402 9.79323
head 2.98129 -8.73849 4.21422
lclavicle 1.26192e-13 8.09962e-15 0
lhumerus -72.328 -16.6079 104.036
lradius 104.256 0 0
lwrist 54.5213 0 0
lhand -13.2785 49.1392 0
lfingers 7.12502 0 0
lthumb 12.8199 78.6702 0
rclavicle 1.26192e-13 8.09962e-15 0
rhumerus 46.9274 -3.81856 -55.9667
rradius 18.5733 0 0
rwrist 23.6459 0 0
rhand -18.3102 -34.6362 0
rfingers 7.12502 0 0
rthumb 7.97168 -64.4783 0
1635
root -15.0534 14.5819 19.3658 701.808 -70.9583 378.673
lfemur 12.6162 -11.3164 -12.9384
ltibia 26.9621 0 0
lfoot -20.7397 28.6903 0
ltoes -44.549 0 0
rfemur -52.7549 -14.8887 7.54986
rtibia 66.3242 0 0
rfoot -10.4709 10.3973 0
rtoes 4.23793 0 0
lowerback 13.1216 4.13264 -8.00454
upperback -0.543077 4.16987 -0.518225
thorax -8.51485 2.3382 3.08826
lowerneck 1.04606 -12.7307 -12.5889
upperneck 3.91201 -17.4798 9.84758
head 2.95597 -8.76124 4.23387
lclavicle 1.2721e-13 7.62176e-15 0
lhumerus -72.1251 -16.8481 104.022
lradius 104.176 0 0
lwrist 54.4491 0 0
lhand -13.6116 48.9836 0
lfingers 7.12502 0 0
lthumb 12.5013 78.564 0
rclavicle 1.2721e-13 7.62176e-15 0
rhumerus 46.8221 -3.66079 -55.7707
rradius 18.9431 0 0
rwrist 22.9799 0 0
rhand -18.2171 -34.6743 0
rfingers 7.12502 0 0
rthumb 8.06111 -64.5065 0
1636
root -15.0486 14.5795 19.3803 702.032 -71.0473 378.534
lfemur 12.4331 -11.393 -12.9198
ltibia 27.1982 0 0
lfoot -20.6988 28.6968 0
ltoes -44.5739 0 0
rfemur -52.8404 -14.8002 7.56487
rtibia 66.2798 0 0
rfoot -10.4551 10.372 0
rtoes 4.13131 0 0
lowerback 13.1066 4.12539 -7.94549
upperback -0.545503 4.17422 -0.494175
thorax -8.50727 2.33857 3.08072
lowerneck 1.1114 -12.7678 -12.5938
upperneck 3.81195 -17.5315 9.91543
head 2.93074 -8.7902 4.2578
lclavicle 1.27843e-13 7.15625e-15 0
lhumerus -71.9536 -17.0911 104.012
lradius 104.128 0 0
lwrist 54.4034 0 0
lhand -13.8773 48.841 0
lfingers 7.12502 0 0
lthumb 12.2474 78.4624 0
rclavicle 1.27843e-13 7.15625e-15 0
rhumerus 46.7582 -3.52206 -55.5501
rradius 19.2836 0 0
rwrist 22.325 0 0
rhand -18.112 -34.7293 0
rfingers 7.12502 0 0
rthumb 8.16222 -64.5517 0
